<svg version="1.1" xmlns="http://www.w3.org/2000/svg" viewBox="0 0 2273.60395760377 1135" width="2273.60395760377" height="1135">
  <!-- svg-source:excalidraw -->
  
  <defs>
    <style>
      @font-face {
        font-family: "Virgil";
        src: url("https://excalidraw.com/Virgil.woff2");
      }
      @font-face {
        font-family: "Cascadia";
        src: url("https://excalidraw.com/Cascadia.woff2");
      }
    </style>
  </defs>
  <rect x="0" y="0" width="2273.60395760377" height="1135" fill="#ffffff"></rect><g stroke-linecap="round" transform="translate(736.6039576037703 59) rotate(0 34 34.5)"><path d="M21.22 2.13 C26.76 -0.84, 34.61 -1.21, 41.11 0.28 C47.61 1.77, 55.89 5.9, 60.22 11.06 C64.55 16.22, 66.65 24.55, 67.1 31.23 C67.56 37.9, 66.33 45.33, 62.95 51.11 C59.58 56.89, 52.98 63.06, 46.85 65.92 C40.72 68.78, 32.59 69.8, 26.18 68.26 C19.76 66.71, 12.58 61.8, 8.34 56.65 C4.11 51.5, 1.45 43.92, 0.77 37.35 C0.09 30.78, 0.01 23.38, 4.29 17.24 C8.56 11.1, 21.99 3.1, 26.43 0.51 C30.87 -2.07, 30.78 1, 30.94 1.73 M20.71 1.82 C26.88 -0.57, 37.71 0.41, 44.35 2.1 C50.99 3.79, 56.4 6.86, 60.55 11.94 C64.7 17.02, 68.84 25.62, 69.25 32.59 C69.66 39.56, 66.76 48.02, 63.01 53.77 C59.25 59.53, 53.21 64.54, 46.74 67.12 C40.27 69.7, 30.61 71.06, 24.16 69.25 C17.72 67.43, 11.85 61.8, 8.07 56.22 C4.3 50.64, 2.04 42.62, 1.49 35.75 C0.95 28.89, 1.25 20.86, 4.82 15.06 C8.39 9.26, 20.08 2.95, 22.94 0.95 C25.8 -1.05, 21.75 2.51, 21.99 3.06" stroke="#000000" stroke-width="1" fill="none"></path></g><g stroke-linecap="round" transform="translate(739.6039576037703 464) rotate(0 42.5 35)"><path d="M51.22 0.15 C59.21 0.97, 69.23 6.47, 74.83 11.78 C80.44 17.1, 84.1 25.37, 84.84 32.03 C85.58 38.68, 83.43 45.82, 79.25 51.73 C75.08 57.64, 67.47 64.58, 59.79 67.48 C52.11 70.38, 41.25 70.47, 33.16 69.12 C25.08 67.78, 16.9 64.47, 11.29 59.42 C5.67 54.36, 0.33 45.81, -0.52 38.8 C-1.37 31.79, 1.87 23.43, 6.19 17.36 C10.5 11.29, 17.07 4.93, 25.39 2.37 C33.71 -0.19, 50.22 1.68, 56.11 2.02 C62 2.36, 60.76 3.75, 60.72 4.41 M29.06 0.85 C36.24 -1.1, 48.47 0.89, 56.66 3.3 C64.85 5.7, 73.56 10.06, 78.21 15.27 C82.86 20.48, 84.68 27.51, 84.54 34.56 C84.4 41.61, 82.61 51.84, 77.38 57.57 C72.16 63.31, 61.41 67.12, 53.17 68.96 C44.93 70.79, 35.49 71.1, 27.94 68.6 C20.4 66.1, 12.6 59.55, 7.92 53.97 C3.23 48.38, -0.28 41.88, -0.16 35.07 C-0.03 28.26, 3.7 18.71, 8.68 13.11 C13.65 7.51, 26.06 3.08, 29.67 1.47 C33.29 -0.14, 30.13 2.77, 30.37 3.44" stroke="#000000" stroke-width="1" fill="none"></path></g><g transform="translate(712.6039576037703 15) rotate(0 68 12.5)"><text x="0" y="18" font-family="Virgil, Segoe UI Emoji" font-size="20px" fill="#000000" text-anchor="start" style="white-space: pre;" direction="ltr">usuário KPMG</text></g><g transform="translate(717.6039576037703 427) rotate(0 68.5 12.5)"><text x="0" y="18" font-family="Virgil, Segoe UI Emoji" font-size="20px" fill="#000000" text-anchor="start" style="white-space: pre;" direction="ltr">usuário BOTS</text></g><g stroke-linecap="round" transform="translate(1039.6039576037701 174) rotate(0 90.5 67)"><path d="M1.68 -0.08 C44.07 -1.76, 91.28 0.31, 180.93 1.14 M0.07 -0.14 C39.21 0.77, 77.16 1.41, 181.14 0.24 M179.65 1.11 C179.89 40.69, 181.58 80.4, 180.39 135.48 M180.89 -0.27 C181.45 31.48, 180.5 62.03, 181.57 134.74 M181.38 135.41 C126.21 134.21, 73.5 132.75, -1.74 132.95 M181.6 134.56 C125.87 135.43, 69.66 135.56, 0.21 134.48 M-0.61 135.34 C0.24 84.92, -1.29 35.69, 1.51 0.58 M0.75 134.41 C0.79 105.83, -0.29 78.47, -0.52 -0.56" stroke="#000000" stroke-width="1" fill="none"></path></g><g transform="translate(1044.6039576037701 228.5) rotate(0 85.5 12.5)"><text x="85.5" y="18" font-family="Virgil, Segoe UI Emoji" font-size="20px" fill="#000000" text-anchor="middle" style="white-space: pre;" direction="ltr">SISTEMA TAS</text></g><g stroke-linecap="round"><g transform="translate(812.6039576037703 88) rotate(0 107.6419538673386 74.7513752543755)"><path d="M0.87 0.61 C10.66 4.14, 41.73 -1.63, 59.22 21.78 C76.72 45.19, 79.81 121.55, 105.84 141.09 C131.87 160.63, 197.12 139.67, 215.42 139 M-0.14 -0.11 C10 3.03, 44.01 -3.61, 61.53 20.06 C79.05 43.74, 79.35 122.45, 104.99 141.93 C130.63 161.41, 196.59 137.8, 215.36 136.97" stroke="#000000" stroke-width="1" fill="none"></path></g><g transform="translate(812.6039576037703 88) rotate(0 107.6419538673386 74.7513752543755)"><path d="M190.57 150.96 C199.53 146.61, 205.47 140.73, 217.03 136.37 M189.33 153.24 C194.77 148.47, 202.03 145.65, 215.87 136.19" stroke="#000000" stroke-width="1" fill="none"></path></g><g transform="translate(812.6039576037703 88) rotate(0 107.6419538673386 74.7513752543755)"><path d="M186.78 130.79 C197.13 133.26, 204.36 134.22, 217.03 136.37 M185.54 133.07 C191.71 132.8, 199.82 134.47, 215.87 136.19" stroke="#000000" stroke-width="1" fill="none"></path></g></g><g stroke-linecap="round"><g transform="translate(831.6039576037703 499) rotate(0 97.15582666267642 -111.63116594706662)"><path d="M0.37 -0.64 C16.71 -6.22, 87.1 -0.89, 97.87 -33.57 C108.64 -66.25, 48.76 -164.82, 64.98 -196.71 C81.21 -228.59, 173.41 -220.17, 195.21 -224.91 M-0.9 1.64 C15.37 -4.3, 86 -2.57, 97.38 -35.47 C108.75 -68.37, 51.07 -164.38, 67.34 -195.76 C83.62 -227.14, 173.3 -218.92, 195.04 -223.75" stroke="#000000" stroke-width="1" fill="none"></path></g><g transform="translate(831.6039576037703 499) rotate(0 97.15582666267642 -111.63116594706662)"><path d="M166.52 -210.21 C176.19 -216.91, 182.18 -220.01, 195.19 -224.19 M167.94 -212.01 C176.11 -214.48, 183.62 -218.35, 194.65 -224.02" stroke="#000000" stroke-width="1" fill="none"></path></g><g transform="translate(831.6039576037703 499) rotate(0 97.15582666267642 -111.63116594706662)"><path d="M165.17 -230.69 C175.22 -231.51, 181.6 -228.73, 195.19 -224.19 M166.59 -232.49 C175.11 -228.98, 183 -226.89, 194.65 -224.02" stroke="#000000" stroke-width="1" fill="none"></path></g></g><g stroke-linecap="round"><g transform="translate(1231.6039576037701 223) rotate(0 97.0786803153157 -80.06899769362506)"><path d="M0.96 0.43 C19.3 -6.97, 88.67 -20.64, 108.99 -45.59 C129.32 -70.54, 108.74 -131.28, 122.9 -149.26 C137.06 -167.25, 181.94 -152.83, 193.94 -153.51 M0 -0.39 C18.28 -8.06, 87.6 -22.36, 108.04 -47.5 C128.47 -72.64, 108.26 -133.17, 122.61 -151.22 C136.96 -169.27, 182.27 -155.58, 194.16 -155.82" stroke="#000000" stroke-width="1" fill="none"></path></g><g transform="translate(1231.6039576037701 223) rotate(0 97.0786803153157 -80.06899769362506)"><path d="M165.6 -149.25 C171.83 -149.36, 178.59 -152.36, 194.97 -154.29 M164.11 -149.06 C175.19 -152.1, 185.87 -153.88, 194.15 -155.77" stroke="#000000" stroke-width="1" fill="none"></path></g><g transform="translate(1231.6039576037701 223) rotate(0 97.0786803153157 -80.06899769362506)"><path d="M168.22 -169.61 C173.7 -165.38, 179.9 -164.06, 194.97 -154.29 M166.73 -169.42 C176.71 -165.27, 186.47 -159.87, 194.15 -155.77" stroke="#000000" stroke-width="1" fill="none"></path></g></g><g transform="translate(1453.6039576037701 10) rotate(0 107 12.5)"><text x="0" y="18" font-family="Virgil, Segoe UI Emoji" font-size="20px" fill="#000000" text-anchor="start" style="white-space: pre;" direction="ltr">cadastrar novo ativo</text></g><g transform="translate(1452.6039576037701 36) rotate(0 149.5 12.5)"><text x="0" y="18" font-family="Virgil, Segoe UI Emoji" font-size="20px" fill="#000000" text-anchor="start" style="white-space: pre;" direction="ltr">consultar ativos cadastrados</text></g><g transform="translate(1449.6039576037701 93) rotate(0 226 12.5)"><text x="0" y="18" font-family="Virgil, Segoe UI Emoji" font-size="20px" fill="#000000" text-anchor="start" style="white-space: pre;" direction="ltr">editar informações sobre ativos cadastrados</text></g><g transform="translate(1450.6039576037701 65) rotate(0 250.5 12.5)"><text x="0" y="18" font-family="Virgil, Segoe UI Emoji" font-size="20px" fill="#000000" text-anchor="start" style="white-space: pre;" direction="ltr">consultar manifestos para os ativos cadastrados</text></g><g stroke-linecap="round"><g transform="translate(1241.6039576037701 277) rotate(0 109.78903410524134 106.02570991683305)"><path d="M0.03 0.62 C20.07 9.83, 103.5 21.34, 120.21 54.75 C136.91 88.16, 83.55 176.54, 100.26 201.06 C116.97 225.58, 200.35 201.8, 220.49 201.89 M-1.42 -0.11 C19.02 9.34, 105.14 22.93, 122.5 56.16 C139.87 89.39, 86.35 174.81, 102.77 199.27 C119.18 223.74, 201.43 202.52, 221 202.94" stroke="#000000" stroke-width="1" fill="none"></path></g><g transform="translate(1241.6039576037701 277) rotate(0 109.78903410524134 106.02570991683305)"><path d="M195.22 215.1 C201.75 211.2, 211.83 209.28, 220.81 204.74 M193.43 217.3 C201.74 212.17, 208.21 209.22, 221 203.22" stroke="#000000" stroke-width="1" fill="none"></path></g><g transform="translate(1241.6039576037701 277) rotate(0 109.78903410524134 106.02570991683305)"><path d="M192.83 194.72 C199.96 196.83, 210.75 200.92, 220.81 204.74 M191.03 196.92 C199.99 197.18, 207.09 199.64, 221 203.22" stroke="#000000" stroke-width="1" fill="none"></path></g></g><g stroke-linecap="round"><g transform="translate(1047.6039576037701 279) rotate(0 92.54638941399753 -0.9365969251841477)"><path d="M0.95 -0.47 C31.69 -0.77, 153.55 -1.3, 184.15 -1.4" stroke="#000000" stroke-width="1.5" fill="none" stroke-dasharray="8 9"></path></g></g><g stroke-linecap="round"><g transform="translate(1041.6039576037701 223) rotate(0 92.17910033576186 -1.547692437097453)"><path d="M-0.97 -0.78 C29.98 -1.23, 154.14 -1.97, 185.32 -2.32" stroke="#000000" stroke-width="1.5" fill="none" stroke-dasharray="8 9"></path></g></g><g stroke-linecap="round" transform="translate(1500.6039576037701 418) rotate(0 37 26.5)"><path d="M32.87 0.78 C39.78 -0.3, 50.54 0.24, 56.84 2.9 C63.14 5.56, 67.88 11.85, 70.66 16.75 C73.45 21.64, 74.94 27.3, 73.53 32.29 C72.13 37.28, 67.74 43.38, 62.25 46.68 C56.76 49.98, 48.03 51.83, 40.57 52.1 C33.12 52.36, 23.73 50.8, 17.53 48.27 C11.33 45.73, 6.24 41.34, 3.38 36.89 C0.53 32.44, -0.98 26.47, 0.41 21.55 C1.8 16.64, 5.76 11.15, 11.74 7.42 C17.71 3.7, 31.64 0.44, 36.26 -0.8 C40.88 -2.04, 39.48 -0.46, 39.45 -0.01 M49.14 2.72 C55.83 4.21, 64.6 7.84, 68.74 11.9 C72.88 15.97, 74.49 22.03, 73.97 27.12 C73.46 32.2, 70.09 38.5, 65.65 42.44 C61.21 46.37, 54.37 49.14, 47.36 50.73 C40.35 52.31, 30.37 53.56, 23.59 51.94 C16.8 50.31, 10.48 45.35, 6.65 40.99 C2.82 36.64, 0.33 31.08, 0.59 25.8 C0.85 20.53, 3.92 13.24, 8.21 9.34 C12.49 5.43, 19.25 3.63, 26.31 2.38 C33.37 1.14, 46.61 2.09, 50.56 1.85 C54.51 1.62, 50.23 0.77, 50 0.99" stroke="#000000" stroke-width="1" fill="none"></path></g><g stroke-linecap="round" transform="translate(1510.6039576037701 537) rotate(0 37 26.5)"><path d="M34 0.35 C40.87 -0.24, 50.65 1.05, 56.95 3.79 C63.25 6.52, 69.09 11.99, 71.8 16.76 C74.51 21.53, 75.1 27.25, 73.21 32.42 C71.32 37.6, 65.96 44.34, 60.45 47.8 C54.93 51.25, 47.22 53.11, 40.1 53.17 C32.99 53.24, 23.88 51.1, 17.75 48.18 C11.61 45.26, 6.05 40.49, 3.3 35.65 C0.56 30.81, -0.36 24.07, 1.28 19.13 C2.92 14.18, 7.1 9.32, 13.12 5.97 C19.14 2.62, 32.74 -0.04, 37.4 -0.98 C42.06 -1.92, 41.09 -0.37, 41.06 0.32 M44.38 0.05 C51.03 0.87, 59.36 5.46, 64.1 9.12 C68.83 12.78, 71.91 16.88, 72.81 22.02 C73.72 27.15, 72.72 35.09, 69.53 39.93 C66.35 44.77, 60.44 48.85, 53.7 51.06 C46.96 53.27, 36.3 54.37, 29.08 53.19 C21.85 52.01, 15.14 47.94, 10.34 43.99 C5.55 40.04, 1.19 34.38, 0.31 29.48 C-0.57 24.57, 1.42 18.97, 5.06 14.57 C8.71 10.17, 15.62 5.66, 22.16 3.09 C28.69 0.52, 40.77 -0.37, 44.29 -0.86 C47.81 -1.35, 43.4 -0.44, 43.28 0.14" stroke="#000000" stroke-width="1" fill="none"></path></g><g transform="translate(1498.6039576037701 380) rotate(0 58.5 12.5)"><text x="0" y="18" font-family="Virgil, Segoe UI Emoji" font-size="20px" fill="#000000" text-anchor="start" style="white-space: pre;" direction="ltr">usuário adm</text></g><g transform="translate(1510.6039576037701 498) rotate(0 69 12.5)"><text x="0" y="18" font-family="Virgil, Segoe UI Emoji" font-size="20px" fill="#000000" text-anchor="start" style="white-space: pre;" direction="ltr">usuário comum</text></g><g stroke-linecap="round"><g transform="translate(1584.6039576037701 445) rotate(0 75.76858577020471 -61.996199948456024)"><path d="M-0.64 -0.79 C14.8 -1.29, 77.46 16.97, 93 -2.56 C108.54 -22.1, 82.71 -96.77, 92.58 -118.01 C102.44 -139.25, 142.29 -127.83, 152.18 -130 M1.22 1.4 C16.99 1.03, 80.04 18.45, 95.19 -1.32 C110.33 -21.09, 83.08 -95.44, 92.12 -117.22 C101.15 -139.01, 139.58 -129.8, 149.38 -132.03" stroke="#000000" stroke-width="1" fill="none"></path></g><g transform="translate(1584.6039576037701 445) rotate(0 75.76858577020471 -61.996199948456024)"><path d="M119.91 -123.31 C129.59 -123.97, 138.18 -126.42, 151.05 -130.5 M121.63 -121.16 C129.1 -125.82, 139.11 -128.46, 148.75 -132.54" stroke="#000000" stroke-width="1" fill="none"></path></g><g transform="translate(1584.6039576037701 445) rotate(0 75.76858577020471 -61.996199948456024)"><path d="M119.82 -143.83 C129.6 -137.69, 138.22 -133.33, 151.05 -130.5 M121.54 -141.69 C128.93 -140.19, 138.97 -136.69, 148.75 -132.54" stroke="#000000" stroke-width="1" fill="none"></path></g></g><g transform="translate(1766.6039576037701 295) rotate(0 167.5 12.5)"><text x="0" y="18" font-family="Virgil, Segoe UI Emoji" font-size="20px" fill="#000000" text-anchor="start" style="white-space: pre;" direction="ltr">Criar novas seções de manifestos</text></g><g transform="translate(1796.6039576037701 628) rotate(0 213.5 12.5)"><text x="0" y="18" font-family="Virgil, Segoe UI Emoji" font-size="20px" fill="#000000" text-anchor="start" style="white-space: pre;" direction="ltr">Fazer o fluxo de aprovação de manifestos</text></g><g transform="translate(1766.6039576037701 319) rotate(0 161.5 12.5)"><text x="0" y="18" font-family="Virgil, Segoe UI Emoji" font-size="20px" fill="#000000" text-anchor="start" style="white-space: pre;" direction="ltr">Gerenciar acessos a ferramenta</text></g><g stroke-linecap="round"><g transform="translate(1595.6039576037701 565) rotate(0 97.0540697677061 42.1173826534793)"><path d="M0.81 -0.02 C18.26 0.38, 85.09 -11.55, 104.6 2.56 C124.12 16.66, 102.94 71.19, 117.89 84.6 C132.85 98.01, 181.38 83.14, 194.33 83.03 M-0.22 -1.08 C17.04 -1.05, 83.81 -13.22, 103.45 0.73 C123.09 14.67, 102.47 68.7, 117.6 82.58 C132.73 96.45, 181.42 83.62, 194.22 83.96" stroke="#000000" stroke-width="1" fill="none"></path></g><g transform="translate(1595.6039576037701 565) rotate(0 97.0540697677061 42.1173826534793)"><path d="M167.31 96.64 C176.15 94.69, 184.12 88.16, 193.66 84.87 M167.34 97.95 C177.63 93.12, 185.2 88.2, 194.63 83.09" stroke="#000000" stroke-width="1" fill="none"></path></g><g transform="translate(1595.6039576037701 565) rotate(0 97.0540697677061 42.1173826534793)"><path d="M165.02 76.25 C174.56 80.27, 183.2 79.73, 193.66 84.87 M165.05 77.56 C176.16 79.77, 184.52 81.9, 194.63 83.09" stroke="#000000" stroke-width="1" fill="none"></path></g></g><g stroke-linecap="round"><g transform="translate(1111.6039576037701 332) rotate(0 -137.62332582824996 209.34668787479401)"><path d="M-0.69 0.62 C-3.02 45.49, 28.36 215.54, -13.91 268.84 C-56.18 322.13, -209.48 295.57, -254.31 320.4 C-299.14 345.22, -278.29 401.48, -282.91 417.8 M1.15 -0.1 C-1.34 44.91, 27.84 216.7, -14.8 269.76 C-57.45 322.83, -210.08 293.43, -254.71 318.26 C-299.35 343.1, -277.9 402.03, -282.61 418.8" stroke="#000000" stroke-width="1" fill="none"></path></g><g transform="translate(1111.6039576037701 332) rotate(0 -137.62332582824996 209.34668787479401)"><path d="M-292.23 390.91 C-292.04 400.54, -286.18 408.13, -282.95 420.45 M-293 391.34 C-290.86 399.71, -287.23 408.64, -282.21 418.46" stroke="#000000" stroke-width="1" fill="none"></path></g><g transform="translate(1111.6039576037701 332) rotate(0 -137.62332582824996 209.34668787479401)"><path d="M-271.71 390.63 C-277.8 400.23, -278.22 407.9, -282.95 420.45 M-272.48 391.05 C-277.04 399.46, -280.11 408.48, -282.21 418.46" stroke="#000000" stroke-width="1" fill="none"></path></g></g><g transform="translate(779.6039576037703 772) rotate(0 48.5 12.5)"><text x="0" y="18" font-family="Virgil, Segoe UI Emoji" font-size="20px" fill="#000000" text-anchor="start" style="white-space: pre;" direction="ltr">Manifesto</text></g><g stroke-linecap="round"><g transform="translate(1111.6039576037701 335) rotate(0 8.310429943725467 245.45753670085222)"><path d="M-0.77 0.06 C2.08 82.11, 14.38 410.08, 17.39 491.86 M1.02 -0.95 C3.73 80.8, 14.04 408.04, 16.65 490.2" stroke="#000000" stroke-width="1" fill="none"></path></g><g transform="translate(1111.6039576037701 335) rotate(0 8.310429943725467 245.45753670085222)"><path d="M5.61 463 C10.44 471.88, 12.22 482.23, 15 490.94 M5.66 462.58 C9.59 472.65, 12.55 481.55, 16.36 490.7" stroke="#000000" stroke-width="1" fill="none"></path></g><g transform="translate(1111.6039576037701 335) rotate(0 8.310429943725467 245.45753670085222)"><path d="M26.12 462.35 C24.34 471.31, 19.51 481.86, 15 490.94 M26.17 461.93 C23.2 472.15, 19.28 481.28, 16.36 490.7" stroke="#000000" stroke-width="1" fill="none"></path></g></g><g transform="translate(1096.6039576037701 871) rotate(0 25.5 12.5)"><text x="0" y="18" font-family="Virgil, Segoe UI Emoji" font-size="20px" fill="#000000" text-anchor="start" style="white-space: pre;" direction="ltr">Ativo</text></g><g stroke-linecap="round"><g transform="translate(1112.6039576037701 334) rotate(0 96.2181683223846 221.47183544397353)"><path d="M-1.06 -0.19 C10.04 34.64, 35.49 157.72, 66.31 209.43 C97.14 261.14, 163.78 271.04, 183.88 310.05 C203.97 349.05, 186.26 421.31, 186.88 443.46 M0.58 -1.33 C11.57 33.09, 35.12 155.41, 65.53 207.53 C95.94 259.65, 162.88 271.93, 183.04 311.39 C203.21 350.85, 185.45 422.38, 186.53 444.28" stroke="#000000" stroke-width="1" fill="none"></path></g><g transform="translate(1112.6039576037701 334) rotate(0 96.2181683223846 221.47183544397353)"><path d="M178.34 415.85 C181.66 423.21, 183.2 429.55, 185.63 443.55 M179.13 415.57 C181.1 420.74, 182.71 428.12, 186.91 444.89" stroke="#000000" stroke-width="1" fill="none"></path></g><g transform="translate(1112.6039576037701 334) rotate(0 96.2181683223846 221.47183544397353)"><path d="M198.79 417.56 C196.44 424.26, 192.32 430.13, 185.63 443.55 M199.58 417.28 C197.25 422.19, 194.55 429.21, 186.91 444.89" stroke="#000000" stroke-width="1" fill="none"></path></g></g><g transform="translate(1277.6039576037701 805) rotate(0 52 12.5)"><text x="0" y="18" font-family="Virgil, Segoe UI Emoji" font-size="20px" fill="#000000" text-anchor="start" style="white-space: pre;" direction="ltr">Documento</text></g><g stroke-linecap="round"><g transform="translate(1395.6039576037701 819) rotate(0 77.83816636060362 58.14034729352596)"><path d="M-0.81 0.92 C11.71 2.53, 64.16 -8.54, 75.61 9.58 C87.06 27.69, 54.52 92.78, 67.89 109.59 C81.25 126.41, 141.45 110.26, 155.81 110.46 M0.97 0.36 C13.25 2.15, 62.92 -6.98, 74.46 10.89 C86 28.76, 56.53 90.83, 70.2 107.56 C83.87 124.29, 142.22 110.7, 156.49 111.28" stroke="#000000" stroke-width="1" fill="none"></path></g><g transform="translate(1395.6039576037701 819) rotate(0 77.83816636060362 58.14034729352596)"><path d="M130.92 123.49 C137.97 118.06, 148.94 116.87, 155.58 109.76 M128.78 123.74 C137.72 119.58, 144.19 116.82, 156.66 110.3" stroke="#000000" stroke-width="1" fill="none"></path></g><g transform="translate(1395.6039576037701 819) rotate(0 77.83816636060362 58.14034729352596)"><path d="M128.99 103.06 C136.68 104.64, 148.32 110.44, 155.58 109.76 M126.86 103.31 C136.36 104.88, 143.38 107.86, 156.66 110.3" stroke="#000000" stroke-width="1" fill="none"></path></g></g><g transform="translate(1577.6039576037701 912) rotate(0 343 25)"><text x="0" y="18" font-family="Virgil, Segoe UI Emoji" font-size="20px" fill="#000000" text-anchor="start" style="white-space: pre;" direction="ltr">Apenas um formulário a ser preenchido (eg. Pesquisa de Satiosfação)</text><text x="0" y="43" font-family="Virgil, Segoe UI Emoji" font-size="20px" fill="#000000" text-anchor="start" style="white-space: pre;" direction="ltr"></text></g><g stroke-linecap="round"><g transform="translate(1120.6039576037701 907) rotate(0 0.9137257982045526 70.18743945564142)"><path d="M-0.97 -0.93 C-0.62 22.32, 2.12 116.33, 2.8 139.85 M0.72 1.19 C0.93 24.6, 1.9 117.91, 2.27 141.31" stroke="#000000" stroke-width="1" fill="none"></path></g><g transform="translate(1120.6039576037701 907) rotate(0 0.9137257982045526 70.18743945564142)"><path d="M-9.91 114.58 C-4.74 125.21, -0.39 133.58, 0.63 140.36 M-9.12 112.98 C-5.14 123.08, -0.18 133.92, 2.2 140.38" stroke="#000000" stroke-width="1" fill="none"></path></g><g transform="translate(1120.6039576037701 907) rotate(0 0.9137257982045526 70.18743945564142)"><path d="M10.61 114.32 C8.48 124.88, 5.52 133.33, 0.63 140.36 M11.4 112.72 C7.73 122.86, 5.04 133.8, 2.2 140.38" stroke="#000000" stroke-width="1" fill="none"></path></g></g><g transform="translate(942.6039576037703 1075) rotate(0 244 25)"><text x="0" y="18" font-family="Virgil, Segoe UI Emoji" font-size="20px" fill="#000000" text-anchor="start" style="white-space: pre;" direction="ltr">Informações Referente a um sistema sustentado</text><text x="0" y="43" font-family="Virgil, Segoe UI Emoji" font-size="20px" fill="#000000" text-anchor="start" style="white-space: pre;" direction="ltr">por BOTS</text></g><g stroke-linecap="round"><g transform="translate(822.6039576037703 810) rotate(0 -57.838867623560986 65.25187097817661)"><path d="M-0.19 0.63 C0.71 17.11, 25.64 76.67, 4.3 98.21 C-17.04 119.75, -106.02 124.48, -128.23 129.87 M-1.75 -0.09 C-0.88 16.59, 24.64 77.55, 3.5 99.33 C-17.64 121.11, -106.56 125.25, -128.59 130.6" stroke="#000000" stroke-width="1" fill="none"></path></g><g transform="translate(822.6039576037703 810) rotate(0 -57.838867623560986 65.25187097817661)"><path d="M-101.13 116.87 C-109.03 120.56, -115.05 122.29, -129.36 129.71 M-102.4 116.91 C-108.77 121.08, -117.2 123.11, -127.83 129.7" stroke="#000000" stroke-width="1" fill="none"></path></g><g transform="translate(822.6039576037703 810) rotate(0 -57.838867623560986 65.25187097817661)"><path d="M-98.17 137.17 C-106.57 136.67, -113.2 134.21, -129.36 129.71 M-99.44 137.22 C-106.79 135.86, -116.03 132.36, -127.83 129.7" stroke="#000000" stroke-width="1" fill="none"></path></g></g><g transform="translate(496.60395760377025 924) rotate(0 107.5 25)"><text x="0" y="18" font-family="Virgil, Segoe UI Emoji" font-size="20px" fill="#000000" text-anchor="start" style="white-space: pre;" direction="ltr">Equivalente ao </text><text x="0" y="43" font-family="Virgil, Segoe UI Emoji" font-size="20px" fill="#000000" text-anchor="start" style="white-space: pre;" direction="ltr">TAS como existe hoje</text></g><g stroke-linecap="round"><g transform="translate(485.60395760377025 949) rotate(0 -75.33194942969828 -6.911793847009562)"><path d="M0.53 -0.37 C-24.4 -2.76, -125.27 -11.42, -150.51 -13.45 M-0.65 -1.62 C-25.62 -3.91, -126.04 -9.98, -151.2 -12.15" stroke="#000000" stroke-width="1" fill="none"></path></g><g transform="translate(485.60395760377025 949) rotate(0 -75.33194942969828 -6.911793847009562)"><path d="M-122.97 -19.54 C-129.5 -18.21, -134.43 -15.43, -152.98 -11.11 M-122.79 -20.01 C-132.09 -16.75, -140.7 -15.25, -150.43 -12.8" stroke="#000000" stroke-width="1" fill="none"></path></g><g transform="translate(485.60395760377025 949) rotate(0 -75.33194942969828 -6.911793847009562)"><path d="M-124.44 0.93 C-130.79 -2.34, -135.39 -4.15, -152.98 -11.11 M-124.26 0.45 C-133.25 -2.73, -141.39 -7.68, -150.43 -12.8" stroke="#000000" stroke-width="1" fill="none"></path></g></g><g transform="translate(110.60395760377025 887) rotate(0 111.5 62.5)"><text x="0" y="18" font-family="Virgil, Segoe UI Emoji" font-size="20px" fill="#000000" text-anchor="start" style="white-space: pre;" direction="ltr">Passa por um </text><text x="0" y="43" font-family="Virgil, Segoe UI Emoji" font-size="20px" fill="#000000" text-anchor="start" style="white-space: pre;" direction="ltr">fluxo de aprovação</text><text x="0" y="68" font-family="Virgil, Segoe UI Emoji" font-size="20px" fill="#000000" text-anchor="start" style="white-space: pre;" direction="ltr">por pessoas definidas </text><text x="0" y="93" font-family="Virgil, Segoe UI Emoji" font-size="20px" fill="#000000" text-anchor="start" style="white-space: pre;" direction="ltr">do time de BOTS</text><text x="0" y="118" font-family="Virgil, Segoe UI Emoji" font-size="20px" fill="#000000" text-anchor="start" style="white-space: pre;" direction="ltr"></text></g><g stroke-linecap="round"><g transform="translate(214.60395760377025 867) rotate(0 -1.313215564563869 -97.42851706258949)"><path d="M0.06 0.01 C-0.46 -32.32, -2.27 -162.4, -2.68 -194.87 M-1.37 -1.03 C-1.53 -33.15, 0.01 -161.64, -0.33 -193.78" stroke="#000000" stroke-width="1" fill="none"></path></g><g transform="translate(214.60395760377025 867) rotate(0 -1.313215564563869 -97.42851706258949)"><path d="M9.89 -166.71 C5.23 -175.67, 1.96 -182.41, 0.19 -195.2 M9.77 -165.5 C6.07 -176.78, 2.76 -187.23, -0.66 -194.64" stroke="#000000" stroke-width="1" fill="none"></path></g><g transform="translate(214.60395760377025 867) rotate(0 -1.313215564563869 -97.42851706258949)"><path d="M-10.63 -166.75 C-8.44 -175.71, -4.87 -182.43, 0.19 -195.2 M-10.75 -165.54 C-6.45 -177.01, -1.76 -187.44, -0.66 -194.64" stroke="#000000" stroke-width="1" fill="none"></path></g></g><g transform="translate(52.603957603770255 559) rotate(0 189.5 50)"><text x="0" y="18" font-family="Virgil, Segoe UI Emoji" font-size="20px" fill="#000000" text-anchor="start" style="white-space: pre;" direction="ltr">Essa aprovação depende de uma nota</text><text x="0" y="43" font-family="Virgil, Segoe UI Emoji" font-size="20px" fill="#000000" text-anchor="start" style="white-space: pre;" direction="ltr">a ser avaliada pelo time de revisores</text><text x="0" y="68" font-family="Virgil, Segoe UI Emoji" font-size="20px" fill="#000000" text-anchor="start" style="white-space: pre;" direction="ltr">apontando a qualidade da informação</text><text x="0" y="93" font-family="Virgil, Segoe UI Emoji" font-size="20px" fill="#000000" text-anchor="start" style="white-space: pre;" direction="ltr">fornecida pelo usuário</text></g><g stroke-linecap="round" transform="translate(10 534.202181627672) rotate(0 223.99469223620616 64.79473212431463)"><path d="M-0.77 0.25 C167.38 -0.79, 333.87 -0.48, 447.15 0.22 M449.11 1.91 C449.04 45.1, 448 90.34, 448.56 128.44 M448.64 129.21 C284.86 131.8, 122.06 132.36, 0.46 130.39 M-0.44 128.57 C-1.45 80.62, -1.51 30.32, -1.54 -1.97" stroke="#000000" stroke-width="1.5" fill="none" stroke-dasharray="8 9"></path></g><g stroke-linecap="round"><g transform="translate(244.09709670720144 507.03019718844314) rotate(0 3.927473709961575 -65.29933893620938)"><path d="M-0.92 0.85 C0.54 -20.73, 7 -107.81, 8.77 -129.66 M0.81 0.25 C2.08 -21.66, 6.26 -109.93, 7.67 -131.45" stroke="#000000" stroke-width="1" fill="none"></path></g><g transform="translate(244.09709670720144 507.03019718844314) rotate(0 3.927473709961575 -65.29933893620938)"><path d="M17.78 -103.22 C14.82 -110.43, 11.23 -118.43, 5.69 -131.47 M16.73 -102.14 C14.29 -111.04, 10.17 -120.76, 7.49 -131.19" stroke="#000000" stroke-width="1" fill="none"></path></g><g transform="translate(244.09709670720144 507.03019718844314) rotate(0 3.927473709961575 -65.29933893620938)"><path d="M-2.71 -104.35 C0.53 -111.07, 3.15 -118.72, 5.69 -131.47 M-3.76 -103.27 C0.32 -111.89, 2.72 -121.25, 7.49 -131.19" stroke="#000000" stroke-width="1" fill="none"></path></g></g><g stroke-linecap="round" transform="translate(119.85964063227595 206.31550423748376) rotate(0 132.46791949660417 73.20595551128127)"><path d="M-0.12 1.15 C96.78 -0.57, 189.28 -0.25, 263.42 1.47 M-0.34 0.1 C101.53 0.47, 203.41 0.27, 265.05 0.53 M263.9 0.91 C264.77 41.29, 264.15 84.94, 264.18 147.49 M263.96 -0.87 C266.97 41.89, 265.13 85.03, 265.53 146.01 M263.4 147.21 C199.25 146.64, 130.76 147.76, -1.48 145.6 M264.8 145.69 C186.61 145.21, 109.41 145.81, -0.18 147.13 M-1.48 144.7 C0.3 112.25, 2.51 78.91, 0.67 -0.43 M0.34 145.98 C-0.43 96.51, -0.55 45.23, -0.64 0.09" stroke="#000000" stroke-width="1" fill="none"></path></g><g transform="translate(186.59160007793378 218.23149152642128) rotate(0 68 25)"><text x="0" y="18" font-family="Virgil, Segoe UI Emoji" font-size="20px" fill="#000000" text-anchor="start" style="white-space: pre;" direction="ltr">manifesto do </text><text x="0" y="43" font-family="Virgil, Segoe UI Emoji" font-size="20px" fill="#000000" text-anchor="start" style="white-space: pre;" direction="ltr">ativo Chrono</text></g><g transform="translate(137.78762973707944 296.91544370861476) rotate(0 118.5 12.5)"><text x="0" y="18" font-family="Virgil, Segoe UI Emoji" font-size="20px" fill="#000000" text-anchor="start" style="white-space: pre;" direction="ltr">7.5, mas o mínimo era 8</text></g></svg>